<svg width="346" height="362" viewBox="0 0 346 362" fill="none" xmlns="http://www.w3.org/2000/svg">
<path d="M339.891 256.175C322.641 288.135 294.779 311.905 263.101 329.705C230.501 348.023 193.937 367.251 157.54 358.641C121.943 350.22 104.999 311.676 78.8516 286.117C52.6278 260.483 14.0932 244.219 4.33634 208.886C-5.73098 172.428 4.29947 130.451 27.646 100.681C49.3879 72.9566 91.0177 75.7744 121.96 58.8978C153.893 41.4808 174.885 -3.29337 211.052 0.646998C247.052 4.56904 259.186 51.1147 284.846 76.6439C310.25 101.918 349.971 115.058 360.472 149.305C371.373 184.861 357.558 223.444 339.891 256.175Z" fill="#FFA94D" fill-opacity="0.2"/>
</svg>
