<svg width="575" height="575" viewBox="0 0 575 575" fill="none" xmlns="http://www.w3.org/2000/svg">
<path d="M212.479 106.482C250.811 92.6903 291.88 93.6837 331.668 102.521C372.615 111.615 417.555 122.917 441.519 157.351C464.957 191.028 450.266 235.913 452.982 276.837C455.707 317.88 475.73 360.309 457.436 397.132C438.561 435.127 398.764 462.69 356.977 470.09C318.062 476.98 285.39 443.469 246.908 434.411C207.192 425.062 156.144 446.76 128.875 416.398C101.734 386.178 126.432 338.208 124.1 297.674C121.792 257.545 98.4399 216.838 115.299 180.366C132.802 142.501 173.222 120.605 212.479 106.482Z" fill="white"/>
</svg>
