<svg width="70" height="70" viewBox="0 0 70 70" fill="none" xmlns="http://www.w3.org/2000/svg">
<path d="M34.6878 0C15.5328 0 0 15.9229 0 35.5657C0 51.2795 9.93911 64.6111 23.7216 69.3139C25.4552 69.6431 26.0917 68.5424 26.0917 67.603C26.0917 66.7549 26.0595 63.9532 26.0446 60.9814C16.3944 63.1328 14.3581 56.7851 14.3581 56.7851C12.7802 52.6742 10.5066 51.5811 10.5066 51.5811C7.35941 49.3737 10.7439 49.419 10.7439 49.419C14.2271 49.6699 16.0612 53.0841 16.0612 53.0841C19.155 58.5213 24.176 56.9494 26.1554 56.0406C26.4668 53.742 27.3657 52.173 28.3577 51.2848C20.6531 50.3855 12.5538 47.3359 12.5538 33.7081C12.5538 29.8252 13.9089 26.6525 16.1279 24.1618C15.7677 23.266 14.5804 19.6486 16.4639 14.7497C16.4639 14.7497 19.3767 13.7939 26.0055 18.3954C28.7725 17.6073 31.7399 17.2121 34.6878 17.1986C37.6357 17.2121 40.6054 17.6073 43.3775 18.3954C49.9983 13.7939 52.9071 14.7497 52.9071 14.7497C54.7952 19.6486 53.6073 23.266 53.2471 24.1618C55.4713 26.6525 56.8171 29.8252 56.8171 33.7081C56.8171 47.3683 48.7024 50.3761 40.9782 51.2566C42.2224 52.3603 43.331 54.5247 43.331 57.8428C43.331 62.6016 43.2908 66.4315 43.2908 67.603C43.2908 68.5494 43.9152 69.6584 45.6735 69.3092C59.4485 64.6011 69.375 51.2742 69.375 35.5657C69.375 15.9229 53.8445 0 34.6878 0Z" fill="#161514"/>
<path d="M13.2406 50.8203C13.1644 50.9952 12.8937 51.0477 12.6472 50.9276C12.3961 50.8127 12.255 50.5742 12.3364 50.3987C12.411 50.2185 12.6822 50.1683 12.9327 50.289C13.1844 50.4039 13.3278 50.6447 13.2406 50.8203Z" fill="#161514"/>
<path d="M14.6422 52.4113C14.477 52.567 14.1543 52.4946 13.9352 52.2486C13.7088 52.0031 13.6663 51.6747 13.8337 51.5167C14.004 51.361 14.3171 51.4339 14.5441 51.6794C14.7706 51.9278 14.8147 52.2538 14.6422 52.4113Z" fill="#161514"/>
<path d="M16.0075 54.4398C15.7954 54.5897 15.4485 54.4491 15.2341 54.136C15.022 53.8228 15.022 53.4473 15.2387 53.2968C15.4537 53.1464 15.7954 53.2817 16.0127 53.5925C16.2243 53.9109 16.2243 54.2864 16.0075 54.4398Z" fill="#161514"/>
<path d="M17.8782 56.3988C17.6884 56.6117 17.2842 56.5545 16.9883 56.2641C16.6856 55.9801 16.6013 55.5772 16.7917 55.3643C16.9837 55.1509 17.3902 55.211 17.6884 55.499C17.9888 55.7824 18.0806 56.1883 17.8782 56.3988Z" fill="#161514"/>
<path d="M20.4575 57.5365C20.3738 57.8123 19.9845 57.9377 19.5924 57.8205C19.2008 57.6998 18.9445 57.3767 19.0236 57.098C19.105 56.8204 19.496 56.6898 19.8911 56.8151C20.2821 56.9353 20.5389 57.256 20.4575 57.5365Z" fill="#161514"/>
<path d="M23.2917 57.7477C23.3015 58.0381 22.9689 58.279 22.5573 58.2842C22.1433 58.2935 21.8085 58.0585 21.8039 57.7728C21.8039 57.4795 22.129 57.241 22.5429 57.234C22.9546 57.2258 23.2917 57.4591 23.2917 57.7477Z" fill="#161514"/>
<path d="M25.928 57.2913C25.9773 57.5747 25.6912 57.8657 25.2824 57.9433C24.8804 58.0179 24.5083 57.843 24.4573 57.5619C24.4074 57.2715 24.6987 56.9805 25.1 56.9053C25.5094 56.833 25.8758 57.0032 25.928 57.2913Z" fill="#161514"/>
</svg>
