<?xml version="1.0" standalone="no"?>
<!DOCTYPE svg PUBLIC "-//W3C//DTD SVG 20010904//EN"
 "http://www.w3.org/TR/2001/REC-SVG-20010904/DTD/svg10.dtd">
<svg version="1.0" xmlns="http://www.w3.org/2000/svg"
 width="500.000000pt" height="500.000000pt" viewBox="0 0 500.000000 500.000000"
 preserveAspectRatio="xMidYMid meet">
<metadata>
Created by potrace 1.16, written by Peter Selinger 2001-2019
</metadata>
<g transform="translate(0.000000,500.000000) scale(0.100000,-0.100000)"
fill="#000000" stroke="none">
<path d="M2497 2589 c-450 -397 -816 -723 -814 -726 3 -2 369 316 814 707 912
804 840 740 828 740 -6 0 -378 -325 -828 -721z"/>
<path d="M1885 3071 c-15 -22 -25 -46 -23 -52 2 -7 15 5 29 27 21 35 24 37 27
17 2 -13 -6 -71 -18 -130 -55 -284 -55 -283 -30 -283 5 0 14 26 21 58 14 66
36 115 48 108 5 -3 27 -44 50 -90 60 -121 122 -167 177 -131 32 21 23 33 -12
15 -39 -22 -69 2 -123 97 -25 45 -56 92 -69 105 l-22 24 105 132 c100 125 116
148 96 140 -9 -3 -116 -133 -184 -222 -20 -27 -37 -45 -37 -41 0 5 7 46 16 92
29 155 4 219 -51 134z"/>
<path d="M3133 2435 c-28 -20 -107 -139 -138 -208 -23 -54 -26 -56 -67 -59
-31 -2 -44 -8 -46 -20 -3 -17 -2 -17 27 -1 52 30 55 8 15 -93 -19 -49 -44 -97
-55 -106 -13 -11 -16 -19 -8 -23 20 -13 58 37 96 127 l38 89 40 -7 c22 -3 41
-7 43 -9 1 -1 -4 -42 -13 -90 -20 -114 -19 -169 1 -190 21 -21 58 -15 63 10 3
17 1 18 -14 5 -14 -12 -18 -12 -26 1 -5 8 -9 19 -9 24 0 18 20 139 31 188 11
47 11 47 53 47 42 0 91 24 81 40 -3 5 -21 2 -40 -6 -35 -14 -75 -19 -75 -8 0
3 14 60 31 126 16 67 29 133 27 147 -4 31 -25 37 -55 16z m-2 -146 c-22 -72
-44 -136 -48 -140 -5 -5 -25 -4 -46 2 l-36 10 23 53 c39 88 131 224 143 212 2
-2 -14 -64 -36 -137z"/>
</g>
</svg>
