<svg width="70" height="70" viewBox="0 0 70 70" fill="none" xmlns="http://www.w3.org/2000/svg">
<path d="M0 34.6875C0 15.5301 15.5301 0 34.6875 0C53.8449 0 69.375 15.5301 69.375 34.6875C69.375 53.8449 53.8449 69.375 34.6875 69.375C15.5301 69.375 0 53.8449 0 34.6875Z" fill="#0077B5"/>
<path fill-rule="evenodd" clip-rule="evenodd" d="M25.0313 21.4234C25.0313 23.6913 23.3242 25.5059 20.5832 25.5059H20.533C17.8939 25.5059 16.1878 23.6913 16.1878 21.4234C16.1878 19.1076 17.9459 17.3438 20.635 17.3438C23.3242 17.3438 24.9803 19.1076 25.0313 21.4234ZM24.5137 28.7298V52.3487H16.6527V28.7298H24.5137ZM52.8626 52.3486L52.8629 38.8063C52.8629 31.5516 48.9849 28.1751 43.812 28.1751C39.6383 28.1751 37.7697 30.4676 36.7264 32.0758V28.7304H28.8645C28.9681 30.9466 28.8645 52.3492 28.8645 52.3492H36.7264V39.1585C36.7264 38.4526 36.7774 37.7485 36.9853 37.2431C37.5534 35.8329 38.847 34.3728 41.0187 34.3728C43.8644 34.3728 45.0019 36.5386 45.0019 39.7125V52.3486H52.8626Z" fill="white"/>
</svg>
