<svg width="70" height="70" viewBox="0 0 70 70" fill="none" xmlns="http://www.w3.org/2000/svg">
<path d="M0 34.6875C0 15.5301 15.5301 0 34.6875 0C53.8449 0 69.375 15.5301 69.375 34.6875C69.375 53.8449 53.8449 69.375 34.6875 69.375C15.5301 69.375 0 53.8449 0 34.6875Z" fill="#55ACEE"/>
<path d="M33.6486 28.1942L33.7214 29.3945L32.5083 29.2475C28.0924 28.6841 24.2345 26.7735 20.959 23.5646L19.3576 21.9724L18.9451 23.1482C18.0717 25.7692 18.6297 28.5371 20.4495 30.3988C21.42 31.4276 21.2016 31.5745 19.5275 30.9622C18.9451 30.7662 18.4356 30.6192 18.3871 30.6927C18.2172 30.8642 18.7996 33.0932 19.2606 33.9751C19.8914 35.1998 21.1773 36.4001 22.5846 37.1105L23.7735 37.6738L22.3662 37.6983C21.0075 37.6983 20.959 37.7228 21.1046 38.2372C21.5898 39.8294 23.5066 41.5196 25.6418 42.2544L27.1461 42.7688L25.8359 43.5527C23.8948 44.6795 21.6141 45.3163 19.3333 45.3653C18.2415 45.3898 17.3438 45.4878 17.3438 45.5613C17.3438 45.8063 20.3039 47.178 22.0266 47.7169C27.1946 49.3091 33.3332 48.6232 37.9432 45.9042C41.2187 43.9691 44.4943 40.1234 46.0229 36.4001C46.8478 34.416 47.6728 30.7907 47.6728 29.0515C47.6728 27.9247 47.7455 27.7778 49.1043 26.4305C49.905 25.6467 50.6571 24.7894 50.8027 24.5444C51.0453 24.079 51.0211 24.079 49.7837 24.4954C47.7213 25.2303 47.4301 25.1323 48.4492 24.03C49.2013 23.2462 50.0991 21.8254 50.0991 21.409C50.0991 21.3355 49.7351 21.458 49.3227 21.6785C48.8859 21.9234 47.9154 22.2908 47.1875 22.5113L45.8773 22.9277L44.6884 22.1194C44.0333 21.6785 43.1113 21.1886 42.626 21.0416C41.3886 20.6987 39.4961 20.7476 38.38 21.1396C35.3471 22.2419 33.4303 25.0833 33.6486 28.1942Z" fill="white"/>
</svg>
